# xmcd
#
# Track frame offsets:
#	150
#	16648
#	31841
#	50426
#	71128
#	88296
#	108188
#	126141
#	143211
#	159232
#	177253
#
# Disc length: 2587 seconds
#
# Revision: 2
# Processed by: cddbd v1.5.2PL0 Copyright (c) Steve Scherf et al.
# Submitted via: EZCDAudioConverter 2.1.4.1
#
DISCID=890a190b
DTITLE=Osvaldinho Da Cuíca - O Velho Batuqueiro
DYEAR=2014
DGENRE=Samba
TTITLE0=Osvaldinho Da Cuíca part. Armandinho Macedo - Leonor
TTITLE1=Osvaldinho Da Cuíca - Frigideira de pobre
TTITLE2=Osvaldinho Da Cuíca part. Faeti - Lembrança
TTITLE3=Osvaldinho Da Cuíca - O Velho batuqueiro
TTITLE4=Osvaldinho Da Cuíca part. Faeti - A casa caiu
TTITLE5=Izzy Gordon - Altar da consciência
TTITLE6=Osvaldinho Da Cuíca part. Osvaldinho do Acordeon - Saudade da garoa
TTITLE7=Osvaldinho Da Cuíca part. Serginho Madureira - Cantiga de Zambi
TTITLE8=Osvaldinho Da Cuíca - Força divina
TTITLE9=Osvaldinho Da Cuíca - Dia lindo
TTITLE10=Osvaldinho Da Cuíca part. Trio Gato com Fome - Bandeira do Timão
EXTD=
EXTT0=
EXTT1=
EXTT2=
EXTT3=
EXTT4=
EXTT5=
EXTT6=
EXTT7=
EXTT8=
EXTT9=
EXTT10=
PLAYORDER=
